<?xml version="1.0" encoding="utf-8"?>
<!-- Generator: Adobe Illustrator 24.1.3, SVG Export Plug-In . SVG Version: 6.00 Build 0)  -->
<svg version="1.1" xmlns="http://www.w3.org/2000/svg" xmlns:xlink="http://www.w3.org/1999/xlink" x="0px" y="0px"
	 viewBox="0 0 1000 1197" style="enable-background:new 0 0 1000 1197;" xml:space="preserve">
<style type="text/css">
	.st0{display:none;}
	.st1{display:inline;fill:none;stroke:#F7931E;stroke-width:0.5;stroke-miterlimit:10;}
	.st2{display:inline;fill:#3AB1B6;stroke:#F7931E;stroke-width:0.25;stroke-miterlimit:10;}
	.st3{display:inline;fill:#69CECB;stroke:#F7931E;stroke-width:0.25;stroke-miterlimit:10;}
	.st4{display:inline;fill:#57C2C9;stroke:#F7931E;stroke-width:0.25;stroke-miterlimit:10;}
	.st5{display:inline;fill:#69CECB;}
	.st6{display:inline;fill:#179AA0;stroke:#F7931E;stroke-width:0.25;stroke-miterlimit:10;}
	.st7{display:inline;fill:#6ED5CD;stroke:#F7931E;stroke-width:0.25;stroke-miterlimit:10;}
	.st8{display:inline;fill:#C4EACE;stroke:#F7931E;stroke-width:0.25;stroke-miterlimit:10;}
	.st9{display:inline;fill:#7CE4DD;stroke:#F7931E;stroke-width:0.25;stroke-miterlimit:10;}
	.st10{display:inline;fill:#88DBCA;stroke:#F7931E;stroke-width:0.25;stroke-miterlimit:10;}
	.st11{display:inline;fill:#007075;stroke:#F7931E;stroke-width:0.25;stroke-miterlimit:10;}
	.st12{display:inline;fill:#1C958D;stroke:#F7931E;stroke-width:0.25;stroke-miterlimit:10;}
	.st13{display:inline;fill:#0A847F;stroke:#F7931E;stroke-width:0.25;stroke-miterlimit:10;}
	.st14{display:inline;fill:#49B29F;stroke:#F7931E;stroke-width:0.25;stroke-miterlimit:10;}
	.st15{display:inline;fill:#63B7A2;stroke:#F7931E;stroke-width:0.25;stroke-miterlimit:10;}
	.st16{display:inline;fill:#DDF3DD;stroke:#F7931E;stroke-width:0.25;stroke-miterlimit:10;}
	.st17{display:inline;fill:#75C7B1;stroke:#F7931E;stroke-width:0.25;stroke-miterlimit:10;}
	.st18{display:inline;fill:#BBDECC;stroke:#F7931E;stroke-width:0.25;stroke-miterlimit:10;}
	.st19{display:inline;fill:#0A8B90;stroke:#F7931E;stroke-width:0.25;stroke-miterlimit:10;}
	.st20{display:inline;fill:#007177;stroke:#F7931E;stroke-width:0.25;stroke-miterlimit:10;}
	.st21{display:inline;fill:#6DCDBF;stroke:#F7931E;stroke-width:0.25;stroke-miterlimit:10;}
	.st22{display:inline;fill:#DFEEE0;stroke:#F7931E;stroke-width:0.25;stroke-miterlimit:10;}
	.st23{display:inline;fill:#5FBBB1;stroke:#F7931E;stroke-width:0.25;stroke-miterlimit:10;}
	.st24{display:inline;fill:#53B9A5;stroke:#F7931E;stroke-width:0.25;stroke-miterlimit:10;}
	.st25{display:inline;fill:#259988;stroke:#F7931E;stroke-width:0.25;stroke-miterlimit:10;}
	.st26{display:inline;fill:#3FB2B2;stroke:#F7931E;stroke-width:0.25;stroke-miterlimit:10;}
	.st27{display:inline;fill:#17959B;stroke:#F7931E;stroke-width:0.25;stroke-miterlimit:10;}
	.st28{display:inline;fill:#139EA4;stroke:#F7931E;stroke-width:0.25;stroke-miterlimit:10;}
	.st29{display:inline;fill:#007C7F;stroke:#F7931E;stroke-width:0.25;stroke-miterlimit:10;}
	.st30{display:inline;fill:#35ACAF;stroke:#F7931E;stroke-width:0.25;stroke-miterlimit:10;}
	.st31{display:inline;fill:#077D8C;stroke:#F7931E;stroke-width:0.25;stroke-miterlimit:10;}
	.st32{display:inline;fill:#35B2A2;stroke:#F7931E;stroke-width:0.25;stroke-miterlimit:10;}
	.st33{display:inline;fill:#24B3AE;stroke:#F7931E;stroke-width:0.25;stroke-miterlimit:10;}
	.st34{display:inline;fill:#005D66;stroke:#F7931E;stroke-width:0.25;stroke-miterlimit:10;}
	.st35{display:inline;fill:#0C6B6E;stroke:#F7931E;stroke-width:0.25;stroke-miterlimit:10;}
	.st36{display:inline;fill:#006967;stroke:#F7931E;stroke-width:0.25;stroke-miterlimit:10;}
	.st37{display:inline;fill:#078C88;stroke:#F7931E;stroke-width:0.25;stroke-miterlimit:10;}
	.st38{display:inline;fill:#129699;stroke:#F7931E;stroke-width:0.25;stroke-miterlimit:10;}
	.st39{display:inline;fill:#37C1BF;stroke:#F7931E;stroke-width:0.25;stroke-miterlimit:10;}
	.st40{display:inline;fill:#F3FCFC;stroke:#F7931E;stroke-width:0.25;stroke-miterlimit:10;}
	.st41{display:inline;fill:#71C9BD;stroke:#F7931E;stroke-width:0.25;stroke-miterlimit:10;}
	.st42{display:inline;fill:#20A793;stroke:#F7931E;stroke-width:0.25;stroke-miterlimit:10;}
	.st43{display:inline;fill:#13AAAA;stroke:#F7931E;stroke-width:0.25;stroke-miterlimit:10;}
	.st44{display:inline;fill:#3AB1B6;}
	.st45{display:inline;fill:#57C2C9;}
	.st46{display:inline;fill:#179AA0;}
	.st47{display:inline;fill:#6ED5CD;}
	.st48{display:inline;fill:#C4EACE;}
	.st49{display:inline;fill:#7CE4DD;}
	.st50{display:inline;fill:#88DBCA;}
	.st51{display:inline;fill:#007075;}
	.st52{display:inline;fill:#1C958D;}
	.st53{display:inline;fill:#0A847F;}
	.st54{display:inline;fill:#49B29F;}
	.st55{display:inline;fill:#63B7A2;}
	.st56{display:inline;fill:#DDF3DD;}
	.st57{display:inline;fill:#16948F;}
	.st58{display:inline;fill:#75C7B1;}
	.st59{display:inline;fill:#BBDECC;}
	.st60{display:inline;fill:#0A8B90;}
	.st61{display:inline;fill:#007177;}
	.st62{display:inline;fill:#6DCDBF;}
	.st63{display:inline;fill:#DFEEE0;}
	.st64{display:inline;fill:#78CEBE;}
	.st65{display:inline;fill:#20A793;}
	.st66{display:inline;fill:#5FC2B1;}
	.st67{display:inline;fill:#53B9A5;}
	.st68{display:inline;fill:#259988;}
	.st69{display:inline;fill:#3CB6B3;}
	.st70{display:inline;fill:#17959B;}
	.st71{display:inline;fill:#007C7F;}
	.st72{display:inline;fill:#35ACAF;}
	.st73{display:inline;fill:#077D8C;}
	.st74{display:inline;fill:#3FB2B2;}
	.st75{display:inline;fill:#35B2A2;}
	.st76{display:inline;fill:#139EA4;}
	.st77{display:inline;fill:#24B3AE;}
	.st78{display:inline;fill:#005D66;}
	.st79{display:inline;fill:#0E7271;}
	.st80{display:inline;fill:#02666C;}
	.st81{display:inline;fill:#00626B;}
	.st82{display:inline;fill:#0C6B6E;}
	.st83{display:inline;fill:#078C88;}
	.st84{display:inline;fill:#129699;}
	.st85{display:inline;fill:#0A858C;}
	.st86{display:inline;fill:#0F9182;}
	.st87{display:inline;fill:#179999;}
	.st88{display:inline;fill:#37C1BF;}
	.st89{display:inline;fill:#32BAB4;}
	.st90{display:inline;fill:#005664;}
	.st91{display:inline;fill:#B6E0BF;}
	.st92{display:inline;fill:#9DDCC4;}
	.st93{display:inline;fill:#DAF7ED;}
	.st94{display:inline;fill:#CAF2E8;}
	.st95{display:inline;fill:#F3FCFC;}
	.st96{display:inline;fill:#B5EDDC;}
	.st97{display:inline;fill:#90E2D9;}
	.st98{display:inline;fill:#71C9BD;}
	.st99{display:inline;fill:#C6EEDC;}
	.st100{display:inline;fill:#72D7CF;}
	.st101{display:inline;fill:#63C4C2;}
	.st102{display:inline;fill:#13A6A4;}
	.st103{display:inline;fill:#5FBBB1;}
	.st104{display:inline;fill:#006967;}
	.st105{display:inline;fill:#13AAAA;}
	.st106{display:inline;fill:#169499;}
	.st107{display:inline;fill:#14A19A;}
	.st108{display:inline;fill:#45B6B0;}
	.st109{display:inline;opacity:0.18;fill:none;stroke:#000000;stroke-miterlimit:10;}
	.st110{display:inline;opacity:0.18;fill:none;stroke:#F7931E;stroke-width:0.5;stroke-miterlimit:10;}
</style>
<g id="Layer_7" class="st0">
</g>
<g id="Layer_8" class="st0">
</g>
<g id="Layer_9">
	<path d="M1962,521.5l-27-27l-81-36l-108-36l-63-108l-45-126l-63-99l-63,99l-45,126l-63,108l-108,36l-81,36l-27,27l-9,45l9,36l54,27
		l90,27l-18,72v99l63-81l18,36l18-36v72l18,72l18,36l18-36l18,72l18,36l18-36l19.3,72l34.7,64l34.7-64l19.3-72l18,36l18-36l18-72
		l18,36l18-36l18-72v-72l18,36l18-36l63,81v-99l-18-72l90-27l54-27l9-36L1962,521.5z M1602,728.5l-18,9h-9h-9l-18-9l-18-9l27-9l18,9
		l18-9l27,9L1602,728.5z M1700.4,622.2l-35.4,16.3l-36,36l-27-18l-27,18l-27-18l-27,18l-36-36l-35.4-16.3l-9-63l17.4-19.7h45l27,18
		h-27l-18,18l18-9l18,9l18-9l-9,18l-18,27l36-27v-18l18-18v-18l-18,8.4l-54-9l18-26.4l45,9h18h18l45-9l18,26.4l-54,9l-18-8.4v18
		l18,18v18l36,27l-18-27l-9-18l18,9l18-9l18,9l-18-18h-27l27-18h45l17.4,19.7L1700.4,622.2z M1719,466.9h-144h-144l-117,9l189-63.6
		l72-8.4l72,8.4l189,63.6L1719,466.9z"/>
</g>
<g id="Layer_1" class="st0">
	
		<image style="display:inline;overflow:visible;opacity:0.48;" width="406" height="640" xlink:href="Mithril.png"  transform="matrix(2.4304 0 0 2.4304 1150.4999 -72.0118)">
	</image>
	
		<image style="display:inline;overflow:visible;opacity:0.48;" width="406" height="640" xlink:href="Mithril.png"  transform="matrix(2.4304 0 0 2.4304 10.6191 1647.6171)">
	</image>
	
		<image style="overflow:visible;opacity:0.48;" width="406" height="640" xlink:href="Mithril.png"  transform="matrix(2.4304 0 0 2.4304 10.6191 -72.0118)">
	</image>
	
		<image style="display:inline;overflow:visible;" width="406" height="640" xlink:href="Mithril.png"  transform="matrix(2.4304 0 0 2.4304 -644.1353 -107.2432)">
	</image>
</g>
<g id="Layer_3" class="st0">
	<polygon class="st1" points="504,369 675,387 504,297 	"/>
	<polygon class="st1" points="612,279 675,387 504,297 	"/>
	<polygon class="st1" points="567,153 504,125.1 504,54 	"/>
	<polygon class="st1" points="612,279 593.4,226.8 504,297 	"/>
	<polygon class="st1" points="504,369 504,432 648,432 	"/>
	<polygon class="st1" points="675,387 648,432 504,369 	"/>
	<polygon class="st1" points="504,297 504,369 675,387 	"/>
	<polygon class="st1" points="648,432 765,441 675,387 	"/>
	<polygon class="st1" points="504,432 648,432 504,369 	"/>
	<polygon class="st1" points="765,441 783,423 675,387 	"/>
	<polygon class="st1" points="864,459 783,423 765,441 	"/>
	<polygon class="st1" points="504,639 504,648 540,639 558,639 531,621 	"/>
	<polygon class="st1" points="567.8,658.6 558,639 540,639 558,657 	"/>
	<polygon class="st1" points="504,684 504,693 531,693 	"/>
	<polygon class="st1" points="549,684 522,675 504,684 531,693 	"/>
	<polygon class="st1" points="504,702 513,702 531,693 504,693 	"/>
	<polygon class="st1" points="504,711.4 513,702 504,702 	"/>
	<polygon class="st1" points="504,756 531,693 513,702 504,711.4 	"/>
	<polygon class="st1" points="531,621 532,602.4 504,629.1 504,639 	"/>
	<polygon class="st1" points="504,515.2 513,531 532,602.4 504,629.1 	"/>
	<polygon class="st1" points="630,585 603,567.1 594,603 	"/>
	<polygon class="st1" points="639,522 612,531 630,585 	"/>
	<polygon class="st1" points="603,567.1 612,531 630,585 	"/>
	<polygon class="st1" points="621,504 612,531 639,522 	"/>
	<polygon class="st1" points="576,504 612,531 621,504 	"/>
	<polygon class="st1" points="549,522 599.5,522 576,504 	"/>
	<polygon class="st1" points="540,531 576,531 558,540 	"/>
	<polygon class="st1" points="567.8,522 576,531 540,531 549,522 	"/>
	<polygon class="st1" points="594,540 576,522 567.8,522 576,531 	"/>
	<polygon class="st1" points="549,549 531,549 540,531 	"/>
	<polygon class="st1" points="567,576 549,549 531,549 	"/>
	<polygon class="st1" points="531,531 531,549 540,531 	"/>
	<polygon class="st1" points="549,522 513,513 576,504 	"/>
	<polygon class="st1" points="531,504 513,513 576,504 	"/>
	<polygon class="st1" points="513,495 513,513 531,504 	"/>
	<polygon class="st1" points="585,495 513,495 531,504 	"/>
	<polygon class="st1" points="513,495 504,477 522,477 585,495 	"/>
	<polygon class="st1" points="567,468 585,495 522,477 	"/>
	<polygon class="st1" points="599.5,522 594,540 576,522 	"/>
	<polygon class="st1" points="612,531 594,540 599.5,522 	"/>
	<polygon class="st1" points="603,567.1 594,540 612,531 	"/>
	<polygon class="st1" points="594,603 567,576 603,567.1 	"/>
	<polygon class="st1" points="594,540 567,576 603,567.1 	"/>
	<polygon class="st1" points="585,495 621,504 576,504 	"/>
	<polygon class="st1" points="531,504 576,504 585,495 	"/>
	<polygon class="st1" points="531,621 594,603 567,576 	"/>
	<polygon class="st1" points="558,639 594,603 531,621 	"/>
	<polygon class="st1" points="531,549 522.6,567.1 513,531 	"/>
	<polygon class="st1" points="531,531 513,531 531,549 	"/>
	<polygon class="st1" points="513,513 504,515.2 513,495 	"/>
	<polygon class="st1" points="504,477 504,515.2 513,495 	"/>
	<polygon class="st1" points="594,603 648,639 630,585 	"/>
	<polygon class="st1" points="504,657 576,684 549,684 522,675 	"/>
	<polygon class="st1" points="558,657 576,684 504,657 504,648 540,639 	"/>
	<polygon class="st1" points="558,639 612,666 567.8,658.6 	"/>
	<polygon class="st1" points="594,603 612,666 558,639 	"/>
	<polygon class="st1" points="504,756 558,783 504,882 	"/>
	<polygon class="st1" points="576,684 504,756 531,693 549,684 	"/>
	<polygon class="st1" points="558,783 576,684 504,756 	"/>
	<polygon class="st1" points="540,999 504,882 504,1008 	"/>
	<polygon class="st1" points="504,1062 540,999 504,1008 	"/>
	<polygon class="st1" points="504,882 558,783 540,999 	"/>
	<polygon class="st1" points="576,963 576,855 558,927 	"/>
	<polygon class="st1" points="594,927 576,855 576,963 	"/>
	<polygon class="st1" points="576,855 558,783 540,999 	"/>
	<polygon class="st1" points="612,666 648,639 594,603 	"/>
	<polygon class="st1" points="666,711 648,639 702,711 	"/>
	<polygon class="st1" points="684,747 702,711 666,711 	"/>
	<polygon class="st1" points="765,792 765,693 747,711 	"/>
	<polygon class="st1" points="702,711 747,711 765,792 	"/>
	<polygon class="st1" points="765,693 747,621 711,495 711,585 	"/>
	<polyline class="st1" points="558,783 576,684 594,765 576,855 558,783 	"/>
	<polygon class="st1" points="612,666 576,684 594,765 	"/>
	<polygon class="st1" points="621,819 594,765 576,855 	"/>
	<polygon class="st1" points="594,927 621,819 576,855 	"/>
	<polygon class="st1" points="630,891 648,801 648,855 	"/>
	<polygon class="st1" points="666,783 648,801 648,855 	"/>
	<polygon class="st1" points="621,819 630,711 594,765 	"/>
	<polygon class="st1" points="612,666 630,711 594,765 	"/>
	<polygon class="st1" points="648,801 621,819 612,855 630,891 	"/>
	<polygon class="st1" points="630,711 648,639 612,666 	"/>
	<polygon class="st1" points="648,747 630,711 648,639 	"/>
	<polygon class="st1" points="666,711 648,747 648,639 	"/>
	<polygon class="st1" points="648,801 648,747 666,711 666,783 	"/>
	<polygon class="st1" points="621,819 648,747 648,801 	"/>
	<polygon class="st1" points="630,711 648,747 621,819 	"/>
	<polygon class="st1" points="504,477 504,459 522,477 	"/>
	<polygon class="st1" points="567,468 504,459 522,477 	"/>
	<polygon class="st1" points="504,459 504,441 567,468 	"/>
	<polygon class="st1" points="558,432 504,441 504,432 	"/>
	<polygon class="st1" points="567,468 558,432 504,441 	"/>
	<polygon class="st1" points="585,495 612,477 567,468 	"/>
	<polygon class="st1" points="621,504 612,477 585,495 	"/>
	<polygon class="st1" points="639,522 630,486 621,504 	"/>
	<polygon class="st1" points="612,477 630,486 621,504 	"/>
	<polygon class="st1" points="567,468 594,450 612,477 	"/>
	<polygon class="st1" points="594,450 558,432 567,468 	"/>
	<polygon class="st1" points="612,477 621,450 630,486 	"/>
	<polygon class="st1" points="594,450 621,450 612,477 	"/>
	<polygon class="st1" points="639,522 675,477 648,432 621,450 	"/>
	<polygon class="st1" points="711,585 675,477 711,495 	"/>
	<polygon class="st1" points="684,432 675,477 711,495 	"/>
	<polygon class="st1" points="648,432 684,432 675,477 	"/>
	<polygon class="st1" points="711,585 747,711 765,693 	"/>
	<polygon class="st1" points="711,585 702,648 747,711 	"/>
	<polygon class="st1" points="702,711 702,648 747,711 	"/>
	<polygon class="st1" points="657,612 702,711 702,648 	"/>
	<polygon class="st1" points="648,639 657,612 702,711 	"/>
	<polygon class="st1" points="630,585 657,612 648,639 	"/>
	<polygon class="st1" points="639,522 657,576 630,585 	"/>
	<polygon class="st1" points="657,612 657,576 630,585 	"/>
	<polygon class="st1" points="639,522 711,585 675,477 	"/>
	<polygon class="st1" points="702,648 684,594 711,585 	"/>
	<polygon class="st1" points="657,612 684,594 702,648 	"/>
	<polygon class="st1" points="657,576 684,594 657,612 	"/>
	<polygon class="st1" points="639,522 711,585 684,594 	"/>
	<polygon class="st1" points="657,576 639,522 684,594 	"/>
	<polygon class="st1" points="837,594 729,558 747,621 	"/>
	<polygon class="st1" points="891,567 729,558 837,594 	"/>
	<polygon class="st1" points="756,504 891,567 900,531 	"/>
	<polygon class="st1" points="891,486 756,504 900,531 	"/>
	<polygon class="st1" points="720,459 891,486 864,459 765,441 	"/>
	<polygon class="st1" points="756,504 720,459 891,486 	"/>
	<polygon class="st1" points="729,558 756,504 891,567 	"/>
	<polygon class="st1" points="711,495 756,504 720,459 693,459 	"/>
	<polygon class="st1" points="684,432 693,459 720,459 	"/>
	<polygon class="st1" points="765,441 684,432 720,459 	"/>
	<polygon class="st1" points="711,495 729,558 756,504 	"/>
	<polygon class="st1" points="504,189 593.4,226.8 504,297 	"/>
	<polygon class="st1" points="504,125.1 504,189 567,153 	"/>
	<polyline class="st1" points="593.4,226.8 567,153 504,189 	"/>
	<polygon class="st1" points="504,369 333,387 504,297 	"/>
	<polygon class="st1" points="396,279 333,387 504,297 	"/>
	<polygon class="st1" points="441,153 504,125.1 504,54 	"/>
	<polygon class="st1" points="396,279 414.6,226.8 504,297 	"/>
	<polygon class="st1" points="504,369 504,432 360,432 	"/>
	<polygon class="st1" points="333,387 360,432 504,369 	"/>
	<polygon class="st1" points="504,297 504,369 333,387 	"/>
	<polygon class="st1" points="360,432 243,441 333,387 	"/>
	<polygon class="st1" points="504,432 360,432 504,369 	"/>
	<polygon class="st1" points="243,441 225,423 333,387 	"/>
	<polygon class="st1" points="144,459 225,423 243,441 	"/>
	<polygon class="st1" points="504,639 504,648 468,639 450,639 477,621 	"/>
	<polygon class="st1" points="440.2,658.6 450,639 468,639 450,657 	"/>
	<polygon class="st1" points="504,684 504,693 477,693 	"/>
	<polygon class="st1" points="459,684 486,675 504,684 477,693 	"/>
	<polygon class="st1" points="504,702 495,702 477,693 504,693 	"/>
	<polygon class="st1" points="504,711.4 495,702 504,702 	"/>
	<polygon class="st1" points="504,756 477,693 495,702 504,711.4 	"/>
	<polygon class="st1" points="477,621 476,602.4 504,629.1 504,639 	"/>
	<polygon class="st1" points="504,515.2 495,531 476,602.4 504,629.1 	"/>
	<polygon class="st1" points="378,585 405,567.1 414,603 	"/>
	<polygon class="st1" points="369,522 396,531 378,585 	"/>
	<polygon class="st1" points="405,567.1 396,531 378,585 	"/>
	<polygon class="st1" points="387,504 396,531 369,522 	"/>
	<polygon class="st1" points="432,504 396,531 387,504 	"/>
	<polygon class="st1" points="459,522 408.5,522 432,504 	"/>
	<polygon class="st1" points="468,531 432,531 450,540 	"/>
	<polygon class="st1" points="440.2,522 432,531 468,531 459,522 	"/>
	<polygon class="st1" points="414,540 432,522 440.2,522 432,531 	"/>
	<polygon class="st1" points="459,549 477,549 468,531 	"/>
	<polygon class="st1" points="441,576 459,549 477,549 	"/>
	<polygon class="st1" points="477,531 477,549 468,531 	"/>
	<polygon class="st1" points="459,522 495,513 432,504 	"/>
	<polygon class="st1" points="477,504 495,513 432,504 	"/>
	<polygon class="st1" points="495,495 495,513 477,504 	"/>
	<polygon class="st1" points="423,495 495,495 477,504 	"/>
	<polygon class="st1" points="495,495 504,477 486,477 423,495 	"/>
	<polygon class="st1" points="441,468 423,495 486,477 	"/>
	<polygon class="st1" points="408.5,522 414,540 432,522 	"/>
	<polygon class="st1" points="396,531 414,540 408.5,522 	"/>
	<polygon class="st1" points="405,567.1 414,540 396,531 	"/>
	<polygon class="st1" points="414,603 441,576 405,567.1 	"/>
	<polygon class="st1" points="414,540 441,576 405,567.1 	"/>
	<polygon class="st1" points="423,495 387,504 432,504 	"/>
	<polygon class="st1" points="477,504 432,504 423,495 	"/>
	<polygon class="st1" points="477,621 414,603 441,576 	"/>
	<polygon class="st1" points="450,639 414,603 477,621 	"/>
	<polygon class="st1" points="477,549 485.4,567.1 495,531 	"/>
	<polygon class="st1" points="477,531 495,531 477,549 	"/>
	<polygon class="st1" points="495,513 504,515.2 495,495 	"/>
	<polygon class="st1" points="504,477 504,515.2 495,495 	"/>
	<polygon class="st1" points="414,603 360,639 378,585 	"/>
	<polygon class="st1" points="504,657 432,684 459,684 486,675 	"/>
	<polygon class="st1" points="450,657 432,684 504,657 504,648 468,639 	"/>
	<polygon class="st1" points="450,639 396,666 440.2,658.6 	"/>
	<polygon class="st1" points="414,603 396,666 450,639 	"/>
	<polygon class="st1" points="504,756 450,783 504,882 	"/>
	<polygon class="st1" points="432,684 504,756 477,693 459,684 	"/>
	<polygon class="st1" points="450,783 432,684 504,756 	"/>
	<polygon class="st1" points="468,999 504,882 504,1008 	"/>
	<polygon class="st1" points="504,1062 468,999 504,1008 	"/>
	<polygon class="st1" points="504,882 450,783 468,999 	"/>
	<polygon class="st1" points="432,963 432,855 450,927 	"/>
	<polygon class="st1" points="414,927 432,855 432,963 	"/>
	<polygon class="st1" points="432,855 450,783 468,999 	"/>
	<polygon class="st1" points="396,666 360,639 414,603 	"/>
	<polygon class="st1" points="342,711 360,639 306,711 	"/>
	<polygon class="st1" points="324,747 306,711 342,711 	"/>
	<polygon class="st1" points="243,792 243,693 261,711 	"/>
	<polygon class="st1" points="306,711 261,711 243,792 	"/>
	<polygon class="st1" points="243,693 261,621 297,495 297,585 	"/>
	<polyline class="st1" points="450,783 432,684 414,765 432,855 450,783 	"/>
	<polygon class="st1" points="396,666 432,684 414,765 	"/>
	<polygon class="st1" points="387,819 414,765 432,855 	"/>
	<polygon class="st1" points="414,927 387,819 432,855 	"/>
	<polygon class="st1" points="378,891 360,801 360,855 	"/>
	<polygon class="st1" points="342,783 360,801 360,855 	"/>
	<polygon class="st1" points="387,819 378,711 414,765 	"/>
	<polygon class="st1" points="396,666 378,711 414,765 	"/>
	<polygon class="st1" points="360,801 387,819 396,855 378,891 	"/>
	<polygon class="st1" points="378,711 360,639 396,666 	"/>
	<polygon class="st1" points="360,747 378,711 360,639 	"/>
	<polygon class="st1" points="342,711 360,747 360,639 	"/>
	<polygon class="st1" points="360,801 360,747 342,711 342,783 	"/>
	<polygon class="st1" points="387,819 360,747 360,801 	"/>
	<polygon class="st1" points="378,711 360,747 387,819 	"/>
	<polygon class="st1" points="504,477 504,459 486,477 	"/>
	<polygon class="st1" points="441,468 504,459 486,477 	"/>
	<polygon class="st1" points="504,459 504,441 441,468 	"/>
	<polygon class="st1" points="450,432 504,441 504,432 	"/>
	<polygon class="st1" points="441,468 450,432 504,441 	"/>
	<polygon class="st1" points="423,495 396,477 441,468 	"/>
	<polygon class="st1" points="387,504 396,477 423,495 	"/>
	<polygon class="st1" points="369,522 378,486 387,504 	"/>
	<polygon class="st1" points="396,477 378,486 387,504 	"/>
	<polygon class="st1" points="441,468 414,450 396,477 	"/>
	<polygon class="st1" points="414,450 450,432 441,468 	"/>
	<polygon class="st1" points="396,477 387,450 378,486 	"/>
	<polygon class="st1" points="414,450 387,450 396,477 	"/>
	<polygon class="st1" points="369,522 333,477 360,432 387,450 	"/>
	<polygon class="st1" points="297,585 333,477 297,495 	"/>
	<polygon class="st1" points="324,432 333,477 297,495 	"/>
	<polygon class="st1" points="360,432 324,432 333,477 	"/>
	<polygon class="st1" points="297,585 261,711 243,693 	"/>
	<polygon class="st1" points="297,585 306,648 261,711 	"/>
	<polygon class="st1" points="306,711 306,648 261,711 	"/>
	<polygon class="st1" points="351,612 306,711 306,648 	"/>
	<polygon class="st1" points="360,639 351,612 306,711 	"/>
	<polygon class="st1" points="378,585 351,612 360,639 	"/>
	<polygon class="st1" points="369,522 351,576 378,585 	"/>
	<polygon class="st1" points="351,612 351,576 378,585 	"/>
	<polygon class="st1" points="369,522 297,585 333,477 	"/>
	<polygon class="st1" points="306,648 324,594 297,585 	"/>
	<polygon class="st1" points="351,612 324,594 306,648 	"/>
	<polygon class="st1" points="351,576 324,594 351,612 	"/>
	<polygon class="st1" points="369,522 297,585 324,594 	"/>
	<polygon class="st1" points="351,576 369,522 324,594 	"/>
	<polygon class="st1" points="171,594 279,558 261,621 	"/>
	<polygon class="st1" points="117,567 279,558 171,594 	"/>
	<polygon class="st1" points="252,504 117,567 108,531 	"/>
	<polygon class="st1" points="117,486 252,504 108,531 	"/>
	<polygon class="st1" points="288,459 117,486 144,459 243,441 	"/>
	<polygon class="st1" points="252,504 288,459 117,486 	"/>
	<polygon class="st1" points="279,558 252,504 117,567 	"/>
	<polygon class="st1" points="297,495 252,504 288,459 315,459 	"/>
	<polygon class="st1" points="324,432 315,459 288,459 	"/>
	<polygon class="st1" points="243,441 324,432 288,459 	"/>
	<polygon class="st1" points="297,495 279,558 252,504 	"/>
	<polygon class="st1" points="504,189 414.6,226.8 504,297 	"/>
	<polygon class="st1" points="504,125.1 504,189 441,153 	"/>
	<polyline class="st1" points="414.6,226.8 441,153 504,189 	"/>
</g>
<g id="Layer_3_copy" class="st0">
	<polygon class="st2" points="504,369 675,387 504,297 	"/>
	<polygon class="st2" points="612,279 675,387 504,297 	"/>
	<polygon class="st3" points="567,153 504,125.1 504,54 	"/>
	<polygon class="st4" points="612,279 593.4,226.8 504,297 	"/>
	<polygon class="st2" points="504,369 504,432 648,432 	"/>
	<polygon class="st5" points="675,387 648,432 504,369 	"/>
	<polygon class="st6" points="504,297 504,369 675,387 	"/>
	<polygon class="st7" points="648,432 765,441 675,387 	"/>
	<polygon class="st8" points="504,432 648,432 504,369 	"/>
	<polygon class="st9" points="765,441 783,423 675,387 	"/>
	<polygon class="st7" points="864,459 783,423 765,441 	"/>
	<polygon class="st10" points="504,639 504,648 540,639 558,639 531,621 	"/>
	<polygon class="st11" points="504,684 504,693 531,693 	"/>
	<polygon class="st12" points="549,684 522,675 504,684 531,693 	"/>
	<polygon class="st13" points="504,702 513,702 531,693 504,693 	"/>
	<polygon class="st14" points="504,711.4 513,702 504,702 	"/>
	<polygon class="st15" points="504,756 531,693 513,702 504,711.4 	"/>
	<polygon class="st14" points="531,621 532,602.4 504,629.1 504,639 	"/>
	<polygon class="st16" points="504,515.2 513,531 532,602.4 504,629.1 	"/>
	<polygon class="st15" points="630,585 603,567.1 594,603 	"/>
	<polygon class="st15" points="639,522 612,531 630,585 	"/>
	<polygon class="st17" points="603,567.1 612,531 630,585 	"/>
	<polygon class="st14" points="621,504 612,531 639,522 	"/>
	<polygon class="st18" points="576,504 599.5,522 621,504 	"/>
	<polygon class="st18" points="549,522 599.5,522 576,504 	"/>
	<polygon class="st19" points="540,531 576,531 558,540 	"/>
	<polygon class="st20" points="567.8,522 576,531 540,531 549,522 	"/>
	<polygon class="st14" points="594,540 576,522 567.8,522 576,531 	"/>
	<polygon class="st12" points="549,549 531,549 540,531 	"/>
	<polygon class="st14" points="567,576 549,549 531,549 	"/>
	<polygon class="st13" points="531,531 531,549 540,531 	"/>
	<polygon class="st13" points="549,522 513,513 576,504 	"/>
	<polygon class="st13" points="531,504 513,513 576,504 	"/>
	<polygon class="st14" points="513,495 513,513 531,504 	"/>
	<polygon class="st21" points="585,495 513,495 531,504 	"/>
	<polygon class="st10" points="513,495 504,477 522,477 585,495 	"/>
	<polygon class="st10" points="567,468 585,495 522,477 	"/>
	<polygon class="st22" points="599.5,522 594,540 576,522 	"/>
	<polygon class="st21" points="612,531 594,540 599.5,522 	"/>
	<polygon class="st17" points="603,567.1 594,540 612,531 	"/>
	<polygon class="st17" points="594,603 567,576 603,567.1 	"/>
	<polygon class="st18" points="594,540 567,576 603,567.1 	"/>
	<polygon class="st14" points="585,495 621,504 576,504 	"/>
	<polygon class="st12" points="531,504 576,504 585,495 	"/>
	<polygon class="st10" points="538.5,611.6 594,603 567,576 	"/>
	<polygon class="st17" points="558,639 594,603 538.5,611.6 	"/>
	<polygon class="st18" points="531,549 522.6,567.1 513,531 	"/>
	<polygon class="st16" points="531,531 513,531 531,549 	"/>
	<polygon class="st17" points="513,513 504,515.2 513,495 	"/>
	<polygon class="st18" points="504,477 504,515.2 513,495 	"/>
	<polygon class="st23" points="594,603 648,639 630,585 	"/>
	<polygon class="st17" points="504,657 576,684 549,684 522,675 	"/>
	<polygon class="st14" points="594,603 612,666 558,639 	"/>
	<polygon class="st14" points="504,756 558,783 504,882 	"/>
	<polygon class="st10" points="576,684 504,756 531,693 549,684 	"/>
	<polygon class="st23" points="558,783 576,684 504,756 	"/>
	<polygon class="st24" points="540,999 504,882 504,1008 	"/>
	<polygon class="st25" points="504,1062 540,999 504,1008 	"/>
	<polygon class="st25" points="504,882 558,783 540,999 	"/>
	<polygon class="st26" points="576,936 576,855 558,927 	"/>
	<polygon class="st27" points="594,927 576,855 576,936 	"/>
	<polygon class="st13" points="576,855 558,783 540,999 	"/>
	<polygon class="st24" points="612,666 648,639 594,603 	"/>
	<polygon class="st2" points="666,711 648,639 702,711 	"/>
	<polygon class="st28" points="684,747 702,711 666,711 	"/>
	<polygon class="st29" points="765,792 765,693 747,711 	"/>
	<polygon class="st27" points="702,711 747,711 765,792 	"/>
	<polygon class="st20" points="765,693 747,621 711,495 711,585 	"/>
	<polyline class="st25" points="558,783 576,684 576,855 558,783 	"/>
	<polygon class="st17" points="603,693 576,684 594,765 	"/>
	<polygon class="st30" points="621,819 594,765 576,855 	"/>
	<polygon class="st6" points="594,927 621,819 576,855 	"/>
	<polygon class="st31" points="630,891 648,801 648,855 	"/>
	<polygon class="st19" points="666,783 648,801 648,855 	"/>
	<polygon class="st26" points="621,819 630,711 594,765 	"/>
	<polygon class="st24" points="603,693 630,711 594,765 	"/>
	<polygon class="st30" points="648,801 621,819 612,855 630,891 	"/>
	<polygon class="st14" points="630,711 648,639 612,666 	"/>
	<polygon class="st32" points="648,747 630,711 648,639 	"/>
	<polygon class="st28" points="666,711 648,747 648,639 	"/>
	<polygon class="st19" points="648,801 648,747 666,711 666,783 	"/>
	<polygon class="st33" points="621,819 648,747 648,801 	"/>
	<polygon class="st6" points="630,711 648,747 621,819 	"/>
	<polygon class="st32" points="504,477 504,459 522,477 	"/>
	<polygon class="st32" points="567,468 504,459 522,477 	"/>
	<polygon class="st13" points="504,459 504,441 567,468 	"/>
	<polygon class="st34" points="558,432 504,441 504,432 	"/>
	<polygon class="st35" points="567,468 558,432 504,441 	"/>
	<polygon class="st13" points="585,495 612,477 567,468 	"/>
	<polygon class="st13" points="621,504 612,477 585,495 	"/>
	<polygon class="st13" points="639,522 630,486 621,504 	"/>
	<polygon class="st13" points="612,477 630,486 621,504 	"/>
	<polygon class="st13" points="567,468 594,450 612,477 	"/>
	<polygon class="st35" points="594,450 558,432 567,468 	"/>
	<polygon class="st36" points="612,477 621,450 630,486 	"/>
	<polygon class="st35" points="594,450 621,450 612,477 	"/>
	<polygon class="st35" points="675,477 648,432 621,450 	"/>
	<polygon class="st29" points="711,585 675,477 711,495 	"/>
	<polygon class="st35" points="684,432 675,477 711,495 	"/>
	<polygon class="st35" points="648,432 684,432 675,477 	"/>
	<polygon class="st37" points="711,585 747,711 765,693 	"/>
	<polygon class="st6" points="711,585 702,648 747,711 	"/>
	<polygon class="st30" points="702,711 702,648 747,711 	"/>
	<polygon class="st26" points="657,612 702,711 702,648 	"/>
	<polygon class="st38" points="648,639 657,612 702,711 	"/>
	<polygon class="st28" points="630,585 657,612 648,639 	"/>
	<polygon class="st6" points="639,522 657,576 630,585 	"/>
	<polygon class="st26" points="657,612 657,576 630,585 	"/>
	<polygon class="st27" points="639,522 711,585 675,477 	"/>
	<polygon class="st30" points="702,648 684,594 711,585 	"/>
	<polygon class="st39" points="657,576 684,594 702,648 	"/>
	<polygon class="st39" points="657,576 702,648 657,612 	"/>
	<polygon class="st2" points="639,522 711,585 684,594 	"/>
	<polygon class="st33" points="657,576 639,522 684,594 	"/>
	<polygon class="st34" points="837,594 729,558 747,621 	"/>
	<polygon class="st35" points="891,567 729,558 837,594 	"/>
	<polygon class="st35" points="756,504 891,567 900,531 	"/>
	<polygon class="st35" points="891,486 756,504 900,531 	"/>
	<polygon class="st34" points="720,459 891,486 864,459 765,441 	"/>
	<polygon class="st34" points="756,504 720,459 891,486 	"/>
	<polygon class="st34" points="729,558 756,504 891,567 	"/>
	<polygon class="st34" points="711,495 756,504 720,459 693,459 	"/>
	<polygon class="st34" points="684,432 693,459 720,459 	"/>
	<polygon class="st34" points="765,441 684,432 720,459 	"/>
	<polygon class="st34" points="711,495 729,558 756,504 	"/>
	<polygon class="st2" points="504,189 593.4,226.8 504,297 	"/>
	<polygon class="st4" points="504,125.1 504,189 567,153 	"/>
	<polygon class="st30" points="593.4,226.8 567,153 504,189 	"/>
	<polygon class="st15" points="504,684 522,675 504,657 	"/>
	<polygon class="st34" points="594,450 621,450 603,432 	"/>
	<polygon class="st34" points="558,432 603,432 594,450 	"/>
	<polygon class="st34" points="621,450 603,432 648,432 	"/>
	<polygon class="st18" points="513,531 513,513 504,515.2 	"/>
	<polygon class="st22" points="531,531 513,513 513,531 	"/>
	<polygon class="st13" points="540,531 549,522 513,513 	"/>
	<polygon class="st12" points="531,531 540,531 513,513 	"/>
	<polygon class="st10" points="558,540 561.7,554.7 549,549 540,531 	"/>
	<polygon class="st17" points="576,531 561.7,554.7 558,540 	"/>
	<polygon class="st16" points="594,540 561.7,554.7 576,531 	"/>
	<polygon class="st10" points="522.6,567.1 540,585 531,549 	"/>
	<polygon class="st10" points="532,602.4 540,585 522.6,567.1 	"/>
	<polygon class="st18" points="531,549 540,585 567,576 	"/>
	<polygon class="st18" points="538.5,611.6 532,602.4 540,585 567,576 	"/>
	<polygon class="st2" points="504,369 333,387 504,297 	"/>
	<polygon class="st9" points="396,279 333,387 504,297 	"/>
	<polygon class="st9" points="441,153 504,125.1 504,54 	"/>
	<polygon class="st4" points="396,279 414.6,226.8 504,297 	"/>
	<polygon class="st2" points="504,369 504,432 360,432 	"/>
	<polygon class="st22" points="333,387 360,432 504,369 	"/>
	<polygon class="st7" points="504,297 504,369 333,387 	"/>
	<polygon class="st16" points="360,432 243,441 333,387 	"/>
	<polygon class="st40" points="504,432 360,432 504,369 	"/>
	<polygon class="st22" points="243,441 225,423 333,387 	"/>
	<polygon class="st40" points="144,459 225,423 243,441 	"/>
	<polygon class="st22" points="504,639 504,648 468,639 450,639 477,621 	"/>
	<polygon class="st40" points="450,639 468,639 438.8,670.5 	"/>
	<polygon class="st13" points="504,684 504,693 477,693 	"/>
	<polygon class="st14" points="459,684 486,675 504,684 477,693 	"/>
	<polygon class="st12" points="504,702 495,702 477,693 504,693 	"/>
	<polygon class="st15" points="504,711.4 495,702 504,702 	"/>
	<polygon class="st10" points="504,756 477,693 495,702 504,711.4 	"/>
	<polygon class="st15" points="477,621 476,602.4 504,629.1 504,639 	"/>
	<polygon class="st40" points="504,515.2 495,531 476,602.4 504,629.1 	"/>
	<polygon class="st22" points="378,585 405,567.1 414,603 	"/>
	<polygon class="st17" points="369,522 396,531 378,585 	"/>
	<polygon class="st22" points="405,567.1 396,531 378,585 	"/>
	<polygon class="st41" points="387,504 396,531 369,522 	"/>
	<polygon class="st22" points="432,504 396,531 387,504 	"/>
	<polygon class="st16" points="459,522 408.5,522 432,504 	"/>
	<polygon class="st19" points="468,531 432,531 450,540 	"/>
	<polygon class="st35" points="440.2,522 432,531 468,531 459,522 	"/>
	<polygon class="st24" points="414,540 432,522 440.2,522 432,531 	"/>
	<polygon class="st17" points="459,549 477,549 468,531 	"/>
	<polygon class="st10" points="441,576 459,549 477,549 	"/>
	<polygon class="st10" points="477,531 477,549 468,531 	"/>
	<polygon class="st11" points="459,522 495,513 432,504 	"/>
	<polygon class="st12" points="477,504 495,513 432,504 	"/>
	<polygon class="st14" points="495,495 495,513 477,504 	"/>
	<polygon class="st40" points="423,495 495,495 477,504 	"/>
	<polygon class="st22" points="495,495 504,477 486,477 423,495 	"/>
	<polygon class="st21" points="441,468 423,495 486,477 	"/>
	<polygon class="st16" points="408.5,522 414,540 432,522 	"/>
	<polygon class="st40" points="396,531 414,540 408.5,522 	"/>
	<polygon class="st40" points="405,567.1 414,540 396,531 	"/>
	<polygon class="st40" points="414,603 441,576 405,567.1 	"/>
	<polygon class="st40" points="414,540 441,576 405,567.1 	"/>
	<polygon class="st42" points="423,495 387,504 432,504 	"/>
	<polygon class="st32" points="477,504 432,504 423,495 	"/>
	<polygon class="st40" points="469.5,611.6 414,603 441,576 	"/>
	<polygon class="st22" points="450,639 414,603 469.5,611.6 	"/>
	<polygon class="st40" points="477,549 485.4,567.1 495,531 	"/>
	<polygon class="st40" points="477,531 495,531 477,549 	"/>
	<polygon class="st40" points="495,513 504,515.2 495,495 	"/>
	<polygon class="st16" points="504,477 504,515.2 495,495 	"/>
	<polygon class="st10" points="414,603 360,639 378,585 	"/>
	<polygon class="st18" points="504,657 432,684 459,684 486,675 	"/>
	<polygon class="st40" points="438.8,670.5 468.6,670.3 504,657 504,648 468,639 	"/>
	<polygon class="st17" points="414,603 396,666 450,639 	"/>
	<polygon class="st8" points="504,756 450,783 504,882 	"/>
	<polygon class="st16" points="432,684 504,756 477,693 459,684 	"/>
	<polygon class="st22" points="450,783 432,684 504,756 	"/>
	<polygon class="st10" points="468,999 504,882 504,1008 	"/>
	<polygon class="st17" points="504,1062 468,999 504,1008 	"/>
	<polygon class="st22" points="504,882 450,783 468,999 	"/>
	<polygon class="st32" points="432,936 432,855 450,927 	"/>
	<polygon class="st33" points="414,927 432,855 432,936 	"/>
	<polygon class="st8" points="432,855 450,783 468,999 	"/>
	<polygon class="st21" points="396,666 360,639 414,603 	"/>
	<polygon class="st2" points="342,711 360,639 306,711 	"/>
	<polygon class="st28" points="324,747 306,711 342,711 	"/>
	<polygon class="st30" points="243,792 243,693 261,711 	"/>
	<polygon class="st19" points="306,711 261,711 243,792 	"/>
	<polygon class="st26" points="243,693 261,621 297,495 297,585 	"/>
	<polyline class="st24" points="450,783 432,684 432,855 450,783 	"/>
	<polygon class="st33" points="387,819 414,765 432,855 	"/>
	<polygon class="st39" points="414,927 387,819 432,855 	"/>
	<polygon class="st2" points="378,891 360,801 360,855 	"/>
	<polygon class="st39" points="342,783 360,801 360,855 	"/>
	<polygon class="st23" points="387,819 378,711 414,765 	"/>
	<polygon class="st38" points="360,801 387,819 396,855 378,891 	"/>
	<polygon class="st24" points="378,711 360,639 396,666 	"/>
	<polygon class="st23" points="360,747 378,711 360,639 	"/>
	<polygon class="st7" points="342,711 360,747 360,639 	"/>
	<polygon class="st3" points="360,801 360,747 342,711 342,783 	"/>
	<polygon class="st6" points="387,819 360,747 360,801 	"/>
	<polygon class="st2" points="378,711 360,747 387,819 	"/>
	<polygon class="st23" points="504,477 504,459 486,477 	"/>
	<polygon class="st14" points="441,468 504,459 486,477 	"/>
	<polygon class="st13" points="504,459 504,441 441,468 	"/>
	<polygon class="st34" points="450,432 504,441 504,432 	"/>
	<polygon class="st35" points="441,468 450,432 504,441 	"/>
	<polygon class="st14" points="423,495 396,477 441,468 	"/>
	<polygon class="st25" points="387,504 396,477 423,495 	"/>
	<polygon class="st13" points="369,522 378,486 387,504 	"/>
	<polygon class="st13" points="396,477 378,486 387,504 	"/>
	<polygon class="st13" points="441,468 414,450 396,477 	"/>
	<polygon class="st35" points="414,450 450,432 441,468 	"/>
	<polygon class="st13" points="396,477 387,450 378,486 	"/>
	<polygon class="st35" points="414,450 387,450 396,477 	"/>
	<polygon class="st35" points="333,477 360,432 387,450 	"/>
	<polygon class="st43" points="297,585 333,477 297,495 	"/>
	<polygon class="st13" points="324,432 333,477 297,495 	"/>
	<polygon class="st35" points="360,432 324,432 333,477 	"/>
	<polygon class="st30" points="297,585 261,711 243,693 	"/>
	<polygon class="st6" points="297,585 306,648 261,711 	"/>
	<polygon class="st38" points="306,711 306,648 261,711 	"/>
	<polygon class="st19" points="351,612 306,711 306,648 	"/>
	<polygon class="st39" points="360,639 351,612 306,711 	"/>
	<polygon class="st2" points="378,585 351,612 360,639 	"/>
	<polygon class="st25" points="369,522 351,576 378,585 	"/>
	<polygon class="st12" points="351,612 351,576 378,585 	"/>
	<polygon class="st6" points="369,522 297,585 333,477 	"/>
	<polygon class="st28" points="306,648 324,594 297,585 	"/>
	<polygon class="st38" points="351,612 324,594 306,648 	"/>
	<polygon class="st27" points="351,576 324,594 351,612 	"/>
	<polygon class="st38" points="369,522 297,585 324,594 	"/>
	<polygon class="st6" points="351,576 369,522 324,594 	"/>
	<polygon class="st20" points="171,594 279,558 261,621 	"/>
	<polygon class="st20" points="117,567 279,558 171,594 	"/>
	<polygon class="st20" points="252,504 117,567 108,531 	"/>
	<polygon class="st29" points="117,486 252,504 108,531 	"/>
	<polygon class="st35" points="288,459 117,486 144,459 243,441 	"/>
	<polygon class="st20" points="252,504 288,459 117,486 	"/>
	<polygon class="st29" points="279,558 252,504 117,567 	"/>
	<polygon class="st35" points="297,495 252,504 288,459 315,459 	"/>
	<polygon class="st34" points="324,432 315,459 288,459 	"/>
	<polygon class="st34" points="243,441 324,432 288,459 	"/>
	<polygon class="st20" points="297,495 279,558 252,504 	"/>
	<polygon class="st7" points="504,189 414.6,226.8 504,297 	"/>
	<polygon class="st7" points="504,125.1 504,189 441,153 	"/>
	<polygon class="st3" points="414.6,226.8 441,153 504,189 	"/>
	<polygon class="st17" points="504,684 486,675 504,657 	"/>
	<polygon class="st34" points="414,450 387,450 405,432 	"/>
	<polygon class="st34" points="450,432 405,432 414,450 	"/>
	<polygon class="st34" points="387,450 405,432 360,432 	"/>
	<polygon class="st40" points="495,531 495,513 504,515.2 	"/>
	<polygon class="st22" points="477,531 495,513 495,531 	"/>
	<polygon class="st12" points="468,531 459,522 495,513 	"/>
	<polygon class="st14" points="477,531 468,531 495,513 	"/>
	<polygon class="st10" points="450,540 446.3,554.7 459,549 468,531 	"/>
	<polygon class="st22" points="432,531 446.3,554.7 450,540 	"/>
	<polygon class="st40" points="414,540 441,576 446.3,554.7 	"/>
	<polygon class="st40" points="485.4,567.1 468,585 477,549 	"/>
	<polygon class="st40" points="476,602.4 468,585 485.4,567.1 	"/>
	<polygon class="st40" points="477,549 468,585 441,576 	"/>
	<polygon class="st40" points="469.5,611.6 476,602.4 468,585 441,576 	"/>
	<polygon class="st15" points="612,531 621,504 599.5,522 	"/>
	<polygon class="st22" points="561.7,554.7 567,576 594,540 	"/>
	<polygon class="st16" points="549,549 567,576 561.7,554.7 	"/>
	<polygon class="st17" points="438.8,670.5 432,684 468.6,670.3 	"/>
	<polygon class="st22" points="558.7,639 540.7,639 569.9,670.5 	"/>
	<polygon class="st22" points="569.9,670.5 540.2,670.3 504.7,657 504.7,648 540.7,639 	"/>
	<polygon class="st8" points="558.7,639 612.7,666 569.9,670.5 	"/>
	<polygon class="st17" points="569.9,670.5 603,693 576.7,684 	"/>
	<polygon class="st17" points="569.9,670.5 576.7,684 540.2,670.3 	"/>
	<polygon class="st13" points="532,602.4 558,639 531,621 	"/>
	<polygon class="st21" points="476,602.4 450,639 477,621 	"/>
	<polygon class="st16" points="446.3,554.7 441,576 459,549 	"/>
	<polygon class="st40" points="414,540 432,531 446.3,554.7 	"/>
	<polygon class="st19" points="576,963 576,936 594,927 	"/>
	<polygon class="st24" points="558,927 576,963 576,936 	"/>
	<polygon class="st23" points="414,927 432,936 432,963 	"/>
	<polygon class="st27" points="450,927 432,963 432,936 	"/>
	<polygon class="st22" points="612,666 603,693 569.9,670.5 	"/>
	<polygon class="st22" points="630,711 612,666 603,693 	"/>
	<polygon class="st25" points="405.4,693 432,684 414,765 	"/>
	<polygon class="st17" points="405.4,693 378,711 414,765 	"/>
	<polygon class="st40" points="450,639 396,666 438.8,670.5 	"/>
	<polygon class="st24" points="438.8,670.5 405.4,693 432,684 	"/>
	<polygon class="st22" points="396,666 405.4,693 438.8,670.5 	"/>
	<polygon class="st22" points="378,711 396,666 405.4,693 	"/>
	<polygon class="st42" points="414,765 432,855 432,684 	"/>
	<polygon class="st24" points="594,765 576,684 576,855 	"/>
	<polygon class="st13" points="639,522 621,450 675,477 	"/>
	<polygon class="st11" points="369,522 387,450 333,477 	"/>
</g>
<g id="Layer_3_copy_2" class="st0">
	<polygon class="st44" points="504,369 675,387 504,297 	"/>
	<polygon class="st44" points="612,279 675,387 504,297 	"/>
	<polygon class="st5" points="567,153 504,125.1 504,54 	"/>
	<polygon class="st45" points="612,279 593.4,226.8 504,297 	"/>
	<polygon class="st44" points="504,369 504,432 648,432 	"/>
	<polygon class="st5" points="675,387 648,432 504,369 	"/>
	<polygon class="st46" points="504,297 504,369 675,387 	"/>
	<polygon class="st47" points="648,432 765,441 675,387 	"/>
	<polygon class="st48" points="504,432 648,432 504,369 	"/>
	<polygon class="st49" points="765,441 783,423 675,387 	"/>
	<polygon class="st47" points="864,459 783,423 765,441 	"/>
	<polygon class="st50" points="504,639 504,648 540,639 558,639 531,621 	"/>
	<polygon class="st51" points="504,684 504,693 531,693 	"/>
	<polygon class="st52" points="549,684 522,675 504,684 531,693 	"/>
	<polygon class="st53" points="504,702 513,702 531,693 504,693 	"/>
	<polygon class="st54" points="504,711.4 513,702 504,702 	"/>
	<polygon class="st55" points="504,756 531,693 513,702 504,711.4 	"/>
	<polygon class="st54" points="531,621 532,602.4 504,629.1 504,639 	"/>
	<polygon class="st56" points="504,515.2 513,531 532,602.4 504,629.1 	"/>
	<polygon class="st55" points="630,585 603,567.1 594,603 	"/>
	<polygon class="st57" points="639,522 612,531 630,585 	"/>
	<polygon class="st58" points="603,567.1 612,531 630,585 	"/>
	<polygon class="st54" points="621,504 612,531 639,522 	"/>
	<polygon class="st59" points="576,504 599.5,522 621,504 	"/>
	<polygon class="st59" points="549,522 599.5,522 576,504 	"/>
	<polygon class="st60" points="540,531 576,531 558,540 	"/>
	<polygon class="st61" points="567.8,522 576,531 540,531 549,522 	"/>
	<polygon class="st54" points="594,540 576,522 567.8,522 576,531 	"/>
	<polygon class="st52" points="549,549 531,549 540,531 	"/>
	<polygon class="st54" points="567,576 549,549 531,549 	"/>
	<polygon class="st53" points="531,531 531,549 540,531 	"/>
	<polygon class="st53" points="549,522 513,513 576,504 	"/>
	<polygon class="st53" points="531,504 513,513 576,504 	"/>
	<polygon class="st54" points="513,495 513,513 531,504 	"/>
	<polygon class="st62" points="585,495 513,495 531,504 	"/>
	<polygon class="st50" points="513,495 504,477 522,477 585,495 	"/>
	<polygon class="st50" points="567,468 585,495 522,477 	"/>
	<polygon class="st63" points="599.5,522 594,540 576,522 	"/>
	<polygon class="st62" points="612,531 594,540 599.5,522 	"/>
	<polygon class="st58" points="603,567.1 594,540 612,531 	"/>
	<polygon class="st64" points="594,603 567,576 603,567.1 	"/>
	<polygon class="st59" points="594,540 567,576 603,567.1 	"/>
	<polygon class="st54" points="585,495 621,504 576,504 	"/>
	<polygon class="st52" points="531,504 576,504 585,495 	"/>
	<polygon class="st50" points="538.5,611.6 594,603 567,576 	"/>
	<polygon class="st58" points="558,639 594,603 538.5,611.6 	"/>
	<polygon class="st59" points="531,549 522.6,567.1 513,531 	"/>
	<polygon class="st56" points="531,531 513,531 531,549 	"/>
	<polygon class="st58" points="513,513 504,515.2 513,495 	"/>
	<polygon class="st59" points="504,477 504,515.2 513,495 	"/>
	<polygon class="st65" points="594,603 648,639 630,585 	"/>
	<polygon class="st58" points="504,657 576,684 549,684 522,675 	"/>
	<polygon class="st54" points="594,603 612,666 558,639 	"/>
	<polygon class="st54" points="504,756 558,783 504,882 	"/>
	<polygon class="st50" points="576,684 504,756 531,693 549,684 	"/>
	<polygon class="st66" points="558,783 576,684 504,756 	"/>
	<polygon class="st67" points="540,999 504,882 504,1008 	"/>
	<polygon class="st68" points="504,1062 540,999 504,1008 	"/>
	<polygon class="st68" points="504,882 558,783 540,999 	"/>
	<polygon class="st69" points="576,936 576,855 558,927 	"/>
	<polygon class="st70" points="594,927 576,855 576,936 	"/>
	<polygon class="st53" points="576,855 558,783 540,999 	"/>
	<polygon class="st67" points="612,666 648,639 594,603 	"/>
	<polygon class="st70" points="666,711 648,639 702,711 	"/>
	<polygon class="st60" points="684,747 702,711 666,711 	"/>
	<polygon class="st71" points="765,792 765,693 747,711 	"/>
	<polygon class="st70" points="702,711 747,711 765,792 	"/>
	<polygon class="st61" points="765,693 747,621 711,495 711,585 	"/>
	<polyline class="st68" points="558,783 576,684 576,855 558,783 	"/>
	<polygon class="st64" points="603,693 576,684 594,765 	"/>
	<polygon class="st72" points="621,819 594,765 576,855 	"/>
	<polygon class="st46" points="594,927 621,819 576,855 	"/>
	<polygon class="st73" points="630,891 648,801 648,855 	"/>
	<polygon class="st60" points="666,783 648,801 648,855 	"/>
	<polygon class="st74" points="621,819 630,711 594,765 	"/>
	<polygon class="st67" points="603,693 630,711 594,765 	"/>
	<polygon class="st72" points="648,801 621,819 612,855 630,891 	"/>
	<polygon class="st54" points="630,711 648,639 612,666 	"/>
	<polygon class="st75" points="648,747 630,711 648,639 	"/>
	<polygon class="st76" points="666,711 648,747 648,639 	"/>
	<polygon class="st60" points="648,801 648,747 666,711 666,783 	"/>
	<polygon class="st77" points="621,819 648,747 648,801 	"/>
	<polygon class="st46" points="630,711 648,747 621,819 	"/>
	<polygon class="st75" points="504,477 504,459 522,477 	"/>
	<polygon class="st75" points="567,468 504,459 522,477 	"/>
	<polygon class="st53" points="504,459 504,441 567,468 	"/>
	<polygon class="st78" points="558,432 504,441 504,432 	"/>
	<polygon class="st79" points="567,468 558,432 504,441 	"/>
	<polygon class="st53" points="585,495 612,477 567,468 	"/>
	<polygon class="st53" points="621,504 612,477 585,495 	"/>
	<polygon class="st53" points="639,522 630,486 621,504 	"/>
	<polygon class="st61" points="612,477 630,486 621,504 	"/>
	<polygon class="st53" points="567,468 594,450 612,477 	"/>
	<polygon class="st80" points="594,450 558,432 567,468 	"/>
	<polygon class="st80" points="612,477 621,450 630,486 	"/>
	<polygon class="st81" points="594,450 621,450 612,477 	"/>
	<polygon class="st82" points="675,477 648,432 621,450 	"/>
	<polygon class="st71" points="711,585 675,477 711,495 	"/>
	<polygon class="st81" points="684,432 675,477 711,495 	"/>
	<polygon class="st81" points="648,432 684,432 675,477 	"/>
	<polygon class="st83" points="711,585 747,711 765,693 	"/>
	<polygon class="st84" points="711,585 702,648 747,711 	"/>
	<polygon class="st76" points="702,711 702,648 747,711 	"/>
	<polygon class="st72" points="657,612 702,711 702,648 	"/>
	<polygon class="st85" points="648,639 657,612 702,711 	"/>
	<polygon class="st86" points="630,585 657,612 648,639 	"/>
	<polygon class="st65" points="639,522 657,576 657,612 	"/>
	<polygon class="st53" points="657,612 639,522 630,585 	"/>
	<polygon class="st87" points="639,522 711,585 675,477 	"/>
	<polygon class="st72" points="702,648 684,594 711,585 	"/>
	<polygon class="st88" points="657,576 684,594 702,648 	"/>
	<polygon class="st75" points="657,576 702,648 657,612 	"/>
	<polygon class="st44" points="639,522 711,585 684,594 	"/>
	<polygon class="st89" points="657,576 639,522 684,594 	"/>
	<polygon class="st78" points="837,594 729,558 747,621 	"/>
	<polygon class="st81" points="891,567 729,558 837,594 	"/>
	<polygon class="st82" points="756,504 891,567 900,531 	"/>
	<polygon class="st82" points="891,486 756,504 900,531 	"/>
	<polygon class="st78" points="720,459 891,486 864,459 765,441 	"/>
	<polygon class="st78" points="756,504 720,459 891,486 	"/>
	<polygon class="st81" points="729,558 756,504 891,567 	"/>
	<polygon class="st90" points="711,495 756,504 720,459 693,459 	"/>
	<polygon class="st90" points="684,432 693,459 720,459 	"/>
	<polygon class="st90" points="765,441 684,432 720,459 	"/>
	<polygon class="st90" points="711,495 729,558 756,504 	"/>
	<polygon class="st44" points="504,189 593.4,226.8 504,297 	"/>
	<polygon class="st45" points="504,125.1 504,189 567,153 	"/>
	<polygon class="st72" points="593.4,226.8 567,153 504,189 	"/>
	<polygon class="st55" points="504,684 522,675 504,657 	"/>
	<polygon class="st78" points="594,450 621,450 603,432 	"/>
	<polygon class="st78" points="558,432 603,432 594,450 	"/>
	<polygon class="st78" points="621,450 603,432 648,432 	"/>
	<polygon class="st59" points="513,531 513,513 504,515.2 	"/>
	<polygon class="st63" points="531,531 513,513 513,531 	"/>
	<polygon class="st53" points="540,531 549,522 513,513 	"/>
	<polygon class="st52" points="531,531 540,531 513,513 	"/>
	<polygon class="st50" points="558,540 561.7,554.7 549,549 540,531 	"/>
	<polygon class="st58" points="576,531 561.7,554.7 558,540 	"/>
	<polygon class="st56" points="594,540 561.7,554.7 576,531 	"/>
	<polygon class="st91" points="522.6,567.1 540,585 531,549 	"/>
	<polygon class="st92" points="532,602.4 540,585 522.6,567.1 	"/>
	<polygon class="st48" points="531,549 540,585 567,576 	"/>
	<polygon class="st59" points="538.5,611.6 532,602.4 540,585 567,576 	"/>
	<polygon class="st44" points="504,369 333,387 504,297 	"/>
	<polygon class="st49" points="396,279 333,387 504,297 	"/>
	<polygon class="st49" points="441,153 504,125.1 504,54 	"/>
	<polygon class="st45" points="396,279 414.6,226.8 504,297 	"/>
	<polygon class="st44" points="504,369 504,432 360,432 	"/>
	<polygon class="st93" points="333,387 360,432 504,369 	"/>
	<polygon class="st47" points="504,297 504,369 333,387 	"/>
	<polygon class="st94" points="360,432 243,441 333,387 	"/>
	<polygon class="st95" points="504,432 360,432 504,369 	"/>
	<polygon class="st96" points="243,441 225,423 333,387 	"/>
	<polygon class="st97" points="144,459 225,423 243,441 	"/>
	<polygon class="st63" points="504,639 504,648 468,639 450,639 477,621 	"/>
	<polygon class="st95" points="450,639 468,639 438.8,670.5 	"/>
	<polygon class="st53" points="504,684 504,693 477,693 	"/>
	<polygon class="st54" points="459,684 486,675 504,684 477,693 	"/>
	<polygon class="st52" points="504,702 495,702 477,693 504,693 	"/>
	<polygon class="st55" points="504,711.4 495,702 504,702 	"/>
	<polygon class="st50" points="504,756 477,693 495,702 504,711.4 	"/>
	<polygon class="st55" points="477,621 476,602.4 504,629.1 504,639 	"/>
	<polygon class="st95" points="504,515.2 495,531 476,602.4 504,629.1 	"/>
	<polygon class="st63" points="378,585 405,567.1 414,603 	"/>
	<polygon class="st58" points="369,522 396,531 378,585 	"/>
	<polygon class="st63" points="405,567.1 396,531 378,585 	"/>
	<polygon class="st98" points="387,504 396,531 369,522 	"/>
	<polygon class="st63" points="432,504 396,531 387,504 	"/>
	<polygon class="st56" points="459,522 408.5,522 432,504 	"/>
	<polygon class="st60" points="468,531 432,531 450,540 	"/>
	<polygon class="st82" points="440.2,522 432,531 468,531 459,522 	"/>
	<polygon class="st67" points="414,540 432,522 440.2,522 432,531 	"/>
	<polygon class="st58" points="459,549 477,549 468,531 	"/>
	<polygon class="st50" points="441,576 459,549 477,549 	"/>
	<polygon class="st50" points="477,531 477,549 468,531 	"/>
	<polygon class="st51" points="459,522 495,513 432,504 	"/>
	<polygon class="st52" points="477,504 495,513 432,504 	"/>
	<polygon class="st54" points="495,495 495,513 477,504 	"/>
	<polygon class="st95" points="423,495 495,495 477,504 	"/>
	<polygon class="st63" points="495,495 504,477 486,477 423,495 	"/>
	<polygon class="st62" points="441,468 423,495 486,477 	"/>
	<polygon class="st56" points="408.5,522 414,540 432,522 	"/>
	<polygon class="st95" points="396,531 414,540 408.5,522 	"/>
	<polygon class="st95" points="405,567.1 414,540 396,531 	"/>
	<polygon class="st95" points="414,603 441,576 405,567.1 	"/>
	<polygon class="st95" points="414,540 441,576 405,567.1 	"/>
	<polygon class="st65" points="423,495 387,504 432,504 	"/>
	<polygon class="st75" points="477,504 432,504 423,495 	"/>
	<polygon class="st95" points="469.5,611.6 414,603 441,576 	"/>
	<polygon class="st63" points="450,639 414,603 469.5,611.6 	"/>
	<polygon class="st95" points="477,549 485.4,567.1 495,531 	"/>
	<polygon class="st63" points="477,531 495,531 477,549 	"/>
	<polygon class="st95" points="495,513 504,515.2 495,495 	"/>
	<polygon class="st56" points="504,477 504,515.2 495,495 	"/>
	<polygon class="st50" points="414,603 360,639 378,585 	"/>
	<polygon class="st59" points="504,657 432,684 459,684 486,675 	"/>
	<polygon class="st95" points="438.8,670.5 468.6,670.3 504,657 504,648 468,639 	"/>
	<polygon class="st58" points="414,603 396,666 450,639 	"/>
	<polygon class="st96" points="504,756 450,783 504,882 	"/>
	<polygon class="st56" points="432,684 504,756 477,693 459,684 	"/>
	<polygon class="st99" points="450,783 432,684 504,756 	"/>
	<polygon class="st100" points="468,999 504,882 504,1008 	"/>
	<polygon class="st101" points="504,1062 468,999 504,1008 	"/>
	<polygon class="st97" points="504,882 450,783 468,999 	"/>
	<polygon class="st65" points="432,936 432,855 450,927 	"/>
	<polygon class="st77" points="414,927 432,855 432,936 	"/>
	<polygon class="st64" points="432,855 450,783 468,999 	"/>
	<polygon class="st62" points="396,666 360,639 414,603 	"/>
	<polygon class="st102" points="342,711 360,639 306,711 	"/>
	<polygon class="st84" points="324,747 306,711 342,711 	"/>
	<polygon class="st72" points="243,792 243,693 261,711 	"/>
	<polygon class="st60" points="306,711 261,711 243,792 	"/>
	<polygon class="st74" points="243,693 261,621 297,495 297,585 	"/>
	<polyline class="st66" points="450,783 432,684 432,855 450,783 	"/>
	<polygon class="st77" points="387,819 414,765 432,855 	"/>
	<polygon class="st88" points="414,927 387,819 432,855 	"/>
	<polygon class="st44" points="378,891 360,801 360,855 	"/>
	<polygon class="st88" points="342,783 360,801 360,855 	"/>
	<polygon class="st103" points="387,819 378,711 414,765 	"/>
	<polygon class="st84" points="360,801 387,819 396,855 378,891 	"/>
	<polygon class="st67" points="378,711 360,639 396,666 	"/>
	<polygon class="st103" points="360,747 378,711 360,639 	"/>
	<polygon class="st47" points="342,711 360,747 360,639 	"/>
	<polygon class="st5" points="360,801 360,747 342,711 342,783 	"/>
	<polygon class="st46" points="387,819 360,747 360,801 	"/>
	<polygon class="st44" points="378,711 360,747 387,819 	"/>
	<polygon class="st103" points="504,477 504,459 486,477 	"/>
	<polygon class="st54" points="441,468 504,459 486,477 	"/>
	<polygon class="st53" points="504,459 504,441 441,468 	"/>
	<polygon class="st80" points="450,432 504,441 504,432 	"/>
	<polygon class="st79" points="441,468 450,432 504,441 	"/>
	<polygon class="st54" points="423,495 396,477 441,468 	"/>
	<polygon class="st68" points="387,504 396,477 423,495 	"/>
	<polygon class="st53" points="369,522 378,486 387,504 	"/>
	<polygon class="st53" points="396,477 378,486 387,504 	"/>
	<polygon class="st53" points="441,468 414,450 396,477 	"/>
	<polygon class="st82" points="414,450 450,432 441,468 	"/>
	<polygon class="st104" points="396,477 387,450 378,486 	"/>
	<polygon class="st82" points="414,450 387,450 396,477 	"/>
	<polygon class="st82" points="333,477 360,432 387,450 	"/>
	<polygon class="st105" points="297,585 333,477 297,495 	"/>
	<polygon class="st53" points="324,432 333,477 297,495 	"/>
	<polygon class="st82" points="360,432 324,432 333,477 	"/>
	<polygon class="st88" points="297,585 261,711 243,693 	"/>
	<polygon class="st44" points="297,585 306,648 261,711 	"/>
	<polygon class="st106" points="306,711 306,648 261,711 	"/>
	<polygon class="st53" points="351,612 306,711 306,648 	"/>
	<polygon class="st88" points="360,639 351,612 306,711 	"/>
	<polygon class="st44" points="378,585 351,612 360,639 	"/>
	<polygon class="st68" points="369,522 351,612 378,585 	"/>
	<polygon class="st53" points="351,612 351,576 369,522 	"/>
	<polygon class="st107" points="369,522 297,585 333,477 	"/>
	<polygon class="st46" points="306,648 328.5,594 297,585 	"/>
	<polygon class="st86" points="351,612 351,576 306,648 	"/>
	<polygon class="st106" points="351,576 328.5,594 306,648 	"/>
	<polygon class="st60" points="369,522 297,585 328.5,594 	"/>
	<polygon class="st53" points="351,576 369,522 328.5,594 	"/>
	<polygon class="st61" points="171,594 279,558 261,621 	"/>
	<polygon class="st61" points="117,567 279,558 171,594 	"/>
	<polygon class="st61" points="252,504 117,567 108,531 	"/>
	<polygon class="st71" points="117,486 252,504 108,531 	"/>
	<polygon class="st82" points="288,459 117,486 144,459 243,441 	"/>
	<polygon class="st61" points="252,504 288,459 117,486 	"/>
	<polygon class="st71" points="279,558 252,504 117,567 	"/>
	<polygon class="st82" points="297,495 252,504 288,459 315,459 	"/>
	<polygon class="st78" points="324,432 315,459 288,459 	"/>
	<polygon class="st78" points="243,441 324,432 288,459 	"/>
	<polygon class="st61" points="297,495 279,558 252,504 	"/>
	<polygon class="st47" points="504,189 414.6,226.8 504,297 	"/>
	<polygon class="st47" points="504,125.1 504,189 441,153 	"/>
	<polygon class="st5" points="414.6,226.8 441,153 504,189 	"/>
	<polygon class="st58" points="504,684 486,675 504,657 	"/>
	<polygon class="st78" points="414,450 387,450 405,432 	"/>
	<polygon class="st78" points="450,432 405,432 414,450 	"/>
	<polygon class="st78" points="387,450 405,432 360,432 	"/>
	<polygon class="st99" points="495,531 495,513 504,515.2 	"/>
	<polygon class="st63" points="477,531 495,513 495,531 	"/>
	<polygon class="st52" points="468,531 459,522 495,513 	"/>
	<polygon class="st54" points="477,531 468,531 495,513 	"/>
	<polygon class="st50" points="450,540 446.3,554.7 459,549 468,531 	"/>
	<polygon class="st63" points="432,531 446.3,554.7 450,540 	"/>
	<polygon class="st95" points="414,540 441,576 446.3,554.7 	"/>
	<polygon class="st95" points="485.4,567.1 468,585 477,549 	"/>
	<polygon class="st63" points="476,602.4 468,585 485.4,567.1 	"/>
	<polygon class="st95" points="477,549 468,585 441,576 	"/>
	<polygon class="st95" points="469.5,611.6 476,602.4 468,585 441,576 	"/>
	<polygon class="st55" points="612,531 621,504 599.5,522 	"/>
	<polygon class="st63" points="561.7,554.7 567,576 594,540 	"/>
	<polygon class="st56" points="549,549 567,576 561.7,554.7 	"/>
	<polygon class="st58" points="438.8,670.5 432,684 468.6,670.3 	"/>
	<polygon class="st63" points="558.7,639 540.7,639 569.9,670.5 	"/>
	<polygon class="st63" points="569.9,670.5 540.2,670.3 504.7,657 504.7,648 540.7,639 	"/>
	<polygon class="st48" points="558.7,639 612.7,666 569.9,670.5 	"/>
	<polygon class="st58" points="569.9,670.5 603,693 576.7,684 	"/>
	<polygon class="st103" points="569.9,670.5 576.7,684 540.2,670.3 	"/>
	<polygon class="st53" points="532,602.4 558,639 531,621 	"/>
	<polygon class="st62" points="476,602.4 450,639 477,621 	"/>
	<polygon class="st56" points="446.3,554.7 441,576 459,549 	"/>
	<polygon class="st95" points="414,540 432,531 446.3,554.7 	"/>
	<polygon class="st60" points="576,963 576,936 594,927 	"/>
	<polygon class="st67" points="558,927 576,963 576,936 	"/>
	<polygon class="st108" points="414,927 432,936 432,963 	"/>
	<polygon class="st70" points="450,927 432,963 432,936 	"/>
	<polygon class="st63" points="612,666 603,693 569.9,670.5 	"/>
	<polygon class="st50" points="630,711 612,666 603,693 	"/>
	<polygon class="st68" points="405.4,693 432,684 414,765 	"/>
	<polygon class="st58" points="405.4,693 378,711 414,765 	"/>
	<polygon class="st95" points="450,639 396,666 438.8,670.5 	"/>
	<polygon class="st67" points="438.8,670.5 405.4,693 432,684 	"/>
	<polygon class="st63" points="396,666 405.4,693 438.8,670.5 	"/>
	<polygon class="st96" points="378,711 396,666 405.4,693 	"/>
	<polygon class="st65" points="414,765 432,855 432,684 	"/>
	<polygon class="st67" points="594,765 576,684 576,855 	"/>
	<polygon class="st71" points="639,522 621,450 675,477 	"/>
	<polygon class="st51" points="369,522 387,450 333,477 	"/>
</g>
<g id="Layer_2" class="st0">
	<polygon class="st109" points="1657,477 1657,639 1684,621 1711,639 1747,603 1782.3,586.7 1791.3,523.7 1774,504 1729,504 
		1702,522 1729,522 1747,540 1729,531 1711,540 1693,531 1702,549 1720,576 1684,549 1684,531 1666,513 1666,495 1684,504 1738,495 
		1720,468 1675,477 	"/>
	<polygon class="st109" points="1657,648 1693,639 1711,657 1765,666 1729,684 1711,684 1702,684 1675,675 1657,657 	"/>
	<polygon class="st109" points="1657,684 1675,675 1657,657 	"/>
	<polygon class="st109" points="1657,693 1684,693 1702,684 1675,675 1657,684 	"/>
	<polygon class="st109" points="1657,702 1657,693 1684,693 1666,702 	"/>
	<polygon class="st109" points="1657,756 1657,702 1666,702 1684,693 	"/>
	<polyline class="st109" points="1900,621 1990,594 2044,567 2053,531 2044,486 2017,459 1918,441 1801,432 1657,432 1657,369 
		1828,387 1936,423 2017,459 	"/>
	<polyline class="st109" points="1657,369 1657,54 1720,153 1765,279 1828,387 	"/>
	<polyline class="st109" points="1657,756 1657,1063 1691.7,999 1711,927 1729,963 1747,927 1765,855 1783,891 1801,855 1819,783 
		1819,711 1837,747 1855,711 1918,792 1918,693 1900,621 1864,495 1837,432 1801,432 1657,432 1657,477 	"/>
	<polygon class="st109" points="1657,477 1657,639 1630,621 1603,639 1567,603 1531.6,586.7 1522.6,523.7 1540,504 1585,504 
		1612,522 1585,522 1567,540 1585,531 1603,540 1621,531 1612,549 1594,576 1630,549 1630,531 1648,513 1648,495 1630,504 1576,495 
		1602.3,468.7 1639,477 	"/>
	<polygon class="st109" points="1657,648 1621,639 1603,657 1549,666 1585,684 1603,684 1612,684 1639,675 1657,657 	"/>
	<polygon class="st109" points="1657,684 1639,675 1657,657 	"/>
	<polygon class="st109" points="1657,693 1630,693 1612,684 1639,675 1657,684 	"/>
	<polygon class="st109" points="1657,702 1657,693 1630,693 1648,702 	"/>
	<polygon class="st109" points="1657,756 1657,702 1648,702 1630,693 	"/>
	<polyline class="st109" points="1414,621 1324,594 1270,567 1261,531 1270,486 1297,459 1396,441 1513,432 1657,432 1657,369 
		1486,387 1378,423 1297,459 	"/>
	<polyline class="st109" points="1657,369 1657,54 1594,153 1549,279 1486,387 	"/>
	<polyline class="st109" points="1657,756 1657,1063 1622.3,999 1603,927 1585,963 1567,927 1549,855 1531,891 1513,855 1495,783 
		1495,711 1477,747 1459,711 1396,792 1396,693 1414,621 1450,495 1477,432 1513,432 1657,432 1657,477 	"/>
	<polygon class="st109" points="1396,441 1576,378 1657,369 1738,378 1918,441 1801,432 1504,432 	"/>
	<polygon class="st109" points="504,477 504,639 531,621 558,639 594,603 630,585 639,522 621,504 576,504 549,522 576,522 594,540 
		576,531 558,540 540,531 549,549 567,576 531,549 531,531 513,513 513,495 531,504 585,495 567,468 522,477 	"/>
	<polygon class="st109" points="504,648 540,639 558,657 612,666 576,684 558,684 549,684 522,675 504,657 	"/>
	<polygon class="st109" points="504,684 522,675 504,657 	"/>
	<polygon class="st109" points="504,693 531,693 549,684 522,675 504,684 	"/>
	<polygon class="st109" points="504,702 504,693 531,693 513,702 	"/>
	<polygon class="st109" points="504,756 504,702 513,702 531,693 	"/>
	<polyline class="st109" points="747,621 837,594 891,567 900,531 891,486 864,459 765,441 648,432 504,432 504,369 675,387 
		783,423 864,459 	"/>
	<polyline class="st109" points="504,756 504,1063 538.7,999 558,927 576,963 594,927 612,855 630,891 648,855 666,783 666,711 
		684,747 702,711 765,792 765,693 747,621 711,495 684,432 648,432 504,432 504,477 	"/>
	<polygon class="st109" points="504,477 504,639 477,621 450,639 414,603 378.6,586.7 369.6,523.7 387,504 432,504 459,522 432,522 
		414,540 432,531 450,540 468,531 459,549 441,576 477,549 477,531 495,513 495,495 477,504 423,495 440.9,468 486,477 	"/>
	<polygon class="st109" points="504,648 468,639 450,657 396,666 432,684 450,684 459,684 486,675 504,657 	"/>
	<polygon class="st109" points="504,684 486,675 504,657 	"/>
	<polygon class="st109" points="504,693 477,693 459,684 486,675 504,684 	"/>
	<polygon class="st109" points="504,702 504,693 477,693 495,702 	"/>
	<polygon class="st109" points="504,756 504,702 495,702 477,693 	"/>
	<polyline class="st109" points="261,621 171,594 117,567 108,531 117,486 144,459 243,441 360,432 504,432 504,369 333,387 
		225,423 144,459 	"/>
	<polyline class="st109" points="504,369 504,54 441,153 396,279 333,387 	"/>
	<polyline class="st109" points="504,756 504,1063 469.3,999 450,927 432,963 414,927 396,855 378,891 360,855 342,783 342,711 
		324,747 306,711 243,792 243,693 261,621 297,495 324,432 360,432 504,432 504,477 	"/>
	<polygon class="st109" points="243,441 423,378 504,369 585,378 765,441 648,432 351,432 	"/>
	<polygon class="st110" points="504,657 504,684 522,675 	"/>
	<path class="st109" d="M540,531"/>
	<polyline class="st109" points="504,369 675,387 612,279 567,153 504,54 504,369 	"/>
</g>
<g id="Layer_5" class="st0">
	<path d="M1971,2205l-27-27l-81-36l-108-36l-63-108l-45-126l-63-99l-63,99l-45,126l-63,108l-108,36l-81,36l-27,27l-9,45l9,36l54,27
		l90,27l-18,72v99l63-81l18,36l18-36v72l18,72l18,36l18-36l18,72l18,36l18-36l19.3,72l34.7,64l34.7-64l19.3-72l18,36l18-36l18-72
		l18,36l18-36l18-72v-72l18,36l18-36l63,81v-99l-18-72l90-27l54-27l9-36L1971,2205z M1611,2412l-18,9h-9h-9l-18-9l-18-9l27-9l18,9
		l18-9l27,9L1611,2412z M1709.4,2305.7L1674,2322l-36,36l-27-18l-27,18l-27-18l-27,18l-36-36l-35.4-16.3l-9-63l17.4-19.7h45l27,18
		h-27l-18,18l18-9l18,9l18-9l-9,18l-18,27l36-27v-18l18-18v-18l-18,8.4l-54-9l18-26.4l45,9h18h18l45-9l18,26.4l-54,9l-18-8.4v18
		l18,18v18l36,27l-18-27l-9-18l18,9l18-9l18,9l-18-18h-27l27-18h45l17.4,19.7L1709.4,2305.7z M1728,2150.4h-144h-144l-117,9
		l189-63.6l72-8.4l72,8.4l189,63.6L1728,2150.4z"/>
</g>
</svg>
